<svg width="10" height="10" viewBox="0 0 10 10" fill="none" xmlns="http://www.w3.org/2000/svg">
<rect width="10" height="10" rx="5" fill="white"/>
<path d="M3.60156 3.97266H2.62695V7.0918H3.60156V3.97266Z" fill="black"/>
<path d="M3.09375 2.5C2.73438 2.5 2.49805 2.73242 2.49805 3.04102C2.49805 3.34375 2.72656 3.58203 3.08008 3.58203H3.08789C3.45508 3.58203 3.68359 3.3418 3.68164 3.04102C3.67383 2.73242 3.45312 2.5 3.09375 2.5Z" fill="black"/>
<path d="M6.26367 3.94336C5.70508 3.94336 5.35547 4.24805 5.29102 4.46289V3.97266H4.19531C4.20898 4.23242 4.19531 7.0918 4.19531 7.0918H5.29102V5.40625C5.29102 5.31055 5.28711 5.2168 5.31445 5.15039C5.38867 4.96289 5.55078 4.76758 5.8418 4.76758C6.22266 4.76758 6.39453 5.05664 6.39453 5.47852V7.0918H7.5V5.35742C7.5 4.39258 6.95703 3.94336 6.26367 3.94336Z" fill="black"/>
</svg>
