<svg width="240" height="24" viewBox="0 0 240 24" fill="none" xmlns="http://www.w3.org/2000/svg">
<path d="M13.4844 22.2L14.3444 19.94L3.28437 14.4V12.4L11.8844 8.1V9.9L5.68437 12.92C5.45771 13.04 5.25104 13.14 5.06437 13.22C4.87771 13.3 4.73771 13.3533 4.64437 13.38C4.73771 13.4067 4.87771 13.46 5.06437 13.54C5.25104 13.62 5.45771 13.72 5.68437 13.84L14.9044 18.44L20.5844 3.4H22.4844L21.2644 6.66L32.6844 12.4V14.4L24.0844 18.7V16.96L30.2844 13.92C30.5377 13.8 30.771 13.7 30.9844 13.62C31.211 13.5267 31.3777 13.4667 31.4844 13.44C31.3644 13.4133 31.191 13.36 30.9644 13.28C30.7377 13.1867 30.511 13.08 30.2844 12.96L20.6844 8.16L15.3844 22.2H13.4844Z" fill="#14F4D8"/>
<path d="M48.9688 20L52.7688 5.4H55.1888L58.9688 20H57.1488L56.1888 16.12H51.7688L50.8088 20H48.9688ZM52.1288 14.6H55.8088L54.6888 10.1C54.4754 9.24667 54.3088 8.53333 54.1888 7.96C54.0688 7.38667 53.9954 7.01333 53.9688 6.84C53.9421 7.01333 53.8688 7.38667 53.7488 7.96C53.6288 8.53333 53.4621 9.24 53.2487 10.08L52.1288 14.6ZM61.8009 20V9H63.6009V11.1H63.9809L63.6009 11.52C63.6009 10.6533 63.8609 9.98667 64.3809 9.52C64.9009 9.04 65.6209 8.8 66.5409 8.8C67.6476 8.8 68.5276 9.14 69.1809 9.82C69.8343 10.5 70.1609 11.4267 70.1609 12.6V20H68.3609V12.92C68.3609 12.08 68.1476 11.44 67.7209 11C67.3076 10.5467 66.7409 10.32 66.0209 10.32C65.2743 10.32 64.6809 10.5533 64.2409 11.02C63.8143 11.4867 63.6009 12.1467 63.6009 13V20H61.8009ZM77.3131 20.2C76.2198 20.2 75.3398 19.8333 74.6731 19.1C74.0198 18.3667 73.6931 17.3733 73.6931 16.12V12.9C73.6931 11.6333 74.0198 10.6333 74.6731 9.9C75.3265 9.16667 76.2065 8.8 77.3131 8.8C78.2198 8.8 78.9531 9.04667 79.5131 9.54C80.0731 10.0333 80.3531 10.6933 80.3531 11.52L79.9531 11.1H80.3531L80.3131 8.6V5.4H82.1131V20H80.3131V17.9H79.9531L80.3131 17.48C80.3131 18.32 80.0398 18.9867 79.4931 19.48C78.9465 19.96 78.2198 20.2 77.3131 20.2ZM77.9131 18.64C78.6598 18.64 79.2465 18.4067 79.6731 17.94C80.0998 17.4733 80.3131 16.8267 80.3131 16V13C80.3131 12.1733 80.0998 11.5267 79.6731 11.06C79.2465 10.5933 78.6598 10.36 77.9131 10.36C77.1531 10.36 76.5598 10.56 76.1331 10.96C75.7065 11.3467 75.4931 11.9933 75.4931 12.9V16.1C75.4931 16.9933 75.7065 17.64 76.1331 18.04C76.5598 18.44 77.1531 18.64 77.9131 18.64ZM86.1853 20V9H87.9853V11.1H88.3653L87.9853 11.58C87.9853 10.7267 88.2453 10.0533 88.7653 9.56C89.2986 9.05333 90.032 8.8 90.9653 8.8C92.112 8.8 92.992 9.14667 93.6053 9.84C94.232 10.52 94.5453 11.4933 94.5453 12.76V13.7H92.7453V12.76C92.7453 11.9467 92.5453 11.3467 92.1453 10.96C91.7453 10.56 91.1653 10.36 90.4053 10.36C89.6186 10.36 89.0186 10.5867 88.6053 11.04C88.192 11.4933 87.9853 12.1467 87.9853 13V20H86.1853ZM101.938 20.2C101.071 20.2 100.311 20.0267 99.6575 19.68C99.0175 19.32 98.5175 18.8133 98.1575 18.16C97.7975 17.4933 97.6175 16.7067 97.6175 15.8V13.2C97.6175 12.28 97.7975 11.4933 98.1575 10.84C98.5175 10.1867 99.0175 9.68667 99.6575 9.34C100.311 8.98 101.071 8.8 101.938 8.8C102.804 8.8 103.558 8.97333 104.198 9.32C104.851 9.66667 105.358 10.1533 105.718 10.78C106.078 11.4067 106.258 12.1467 106.258 13V14.96H99.3775V16C99.3775 16.8133 99.6108 17.46 100.078 17.94C100.544 18.4067 101.164 18.64 101.938 18.64C102.604 18.64 103.151 18.5133 103.578 18.26C104.018 17.9933 104.284 17.64 104.378 17.2H106.178C106.058 18.12 105.611 18.8533 104.838 19.4C104.064 19.9333 103.098 20.2 101.938 20.2ZM104.498 13.74V13C104.498 12.1333 104.271 11.4667 103.818 11C103.378 10.52 102.751 10.28 101.938 10.28C101.124 10.28 100.491 10.52 100.038 11C99.5975 11.4667 99.3775 12.1333 99.3775 13V13.56H104.638L104.498 13.74ZM111.49 23.6L113.11 19.32L109.01 9H110.95L113.55 15.8C113.656 16.0667 113.756 16.3467 113.85 16.64C113.943 16.9333 114.01 17.1867 114.05 17.4C114.09 17.1867 114.156 16.9333 114.25 16.64C114.343 16.3467 114.436 16.0667 114.53 15.8L116.95 9H118.85L113.37 23.6H111.49ZM133.354 20V5.4H136.014L137.874 11.72L139.814 5.4H142.474V20H140.734V13.1C140.734 12.4467 140.741 11.7 140.754 10.86C140.781 10.0067 140.814 9.14667 140.854 8.28C140.894 7.41333 140.941 6.63333 140.994 5.94L138.634 13.48H137.074L134.814 6.12C134.894 6.77333 134.954 7.47333 134.994 8.22C135.034 8.96667 135.061 9.74667 135.074 10.56C135.087 11.3733 135.094 12.22 135.094 13.1V20H133.354ZM148.946 20.2C147.813 20.2 146.913 19.8867 146.246 19.26C145.58 18.62 145.246 17.7867 145.246 16.76C145.246 16.08 145.4 15.4867 145.706 14.98C146.013 14.4733 146.44 14.08 146.986 13.8C147.533 13.5067 148.16 13.36 148.866 13.36H152.266V12.5C152.266 11.78 152.073 11.2467 151.686 10.9C151.3 10.54 150.713 10.36 149.926 10.36C149.233 10.36 148.673 10.4867 148.246 10.74C147.82 10.9933 147.593 11.3467 147.566 11.8H145.766C145.833 10.9333 146.233 10.22 146.966 9.66C147.713 9.08667 148.7 8.8 149.926 8.8C151.26 8.8 152.28 9.12 152.986 9.76C153.706 10.4 154.066 11.2933 154.066 12.44V20H152.286V18H151.986L152.266 17.6C152.266 18.1333 152.133 18.5933 151.866 18.98C151.6 19.3667 151.22 19.6667 150.726 19.88C150.233 20.0933 149.64 20.2 148.946 20.2ZM149.386 18.68C150.266 18.68 150.966 18.4667 151.486 18.04C152.006 17.6133 152.266 17.0333 152.266 16.3V14.76H149.066C148.48 14.76 148 14.94 147.626 15.3C147.266 15.6467 147.086 16.1133 147.086 16.7C147.086 17.3133 147.286 17.8 147.686 18.16C148.1 18.5067 148.666 18.68 149.386 18.68ZM158.138 20V9H159.938V11.1H160.318L159.938 11.58C159.938 10.7267 160.198 10.0533 160.718 9.56C161.252 9.05333 161.985 8.8 162.918 8.8C164.065 8.8 164.945 9.14667 165.558 9.84C166.185 10.52 166.498 11.4933 166.498 12.76V13.7H164.698V12.76C164.698 11.9467 164.498 11.3467 164.098 10.96C163.698 10.56 163.118 10.36 162.358 10.36C161.572 10.36 160.972 10.5867 160.558 11.04C160.145 11.4933 159.938 12.1467 159.938 13V20H158.138ZM172.931 20.2C171.797 20.2 170.897 19.8867 170.231 19.26C169.564 18.62 169.231 17.7867 169.231 16.76C169.231 16.08 169.384 15.4867 169.691 14.98C169.997 14.4733 170.424 14.08 170.971 13.8C171.517 13.5067 172.144 13.36 172.851 13.36H176.251V12.5C176.251 11.78 176.057 11.2467 175.671 10.9C175.284 10.54 174.697 10.36 173.911 10.36C173.217 10.36 172.657 10.4867 172.231 10.74C171.804 10.9933 171.577 11.3467 171.551 11.8H169.751C169.817 10.9333 170.217 10.22 170.951 9.66C171.697 9.08667 172.684 8.8 173.911 8.8C175.244 8.8 176.264 9.12 176.971 9.76C177.691 10.4 178.051 11.2933 178.051 12.44V20H176.271V18H175.971L176.251 17.6C176.251 18.1333 176.117 18.5933 175.851 18.98C175.584 19.3667 175.204 19.6667 174.711 19.88C174.217 20.0933 173.624 20.2 172.931 20.2ZM173.371 18.68C174.251 18.68 174.951 18.4667 175.471 18.04C175.991 17.6133 176.251 17.0333 176.251 16.3V14.76H173.051C172.464 14.76 171.984 14.94 171.611 15.3C171.251 15.6467 171.071 16.1133 171.071 16.7C171.071 17.3133 171.271 17.8 171.671 18.16C172.084 18.5067 172.651 18.68 173.371 18.68ZM181.723 20V9H183.523V11.1H183.903L183.523 11.52C183.523 10.6533 183.783 9.98667 184.303 9.52C184.823 9.04 185.543 8.8 186.463 8.8C187.569 8.8 188.449 9.14 189.103 9.82C189.756 10.5 190.083 11.4267 190.083 12.6V20H188.283V12.92C188.283 12.08 188.069 11.44 187.643 11C187.229 10.5467 186.663 10.32 185.943 10.32C185.196 10.32 184.603 10.5533 184.163 11.02C183.736 11.4867 183.523 12.1467 183.523 13V20H181.723ZM198.035 20.2C197.155 20.2 196.382 20.0333 195.715 19.7C195.062 19.3667 194.548 18.8867 194.175 18.26C193.815 17.62 193.635 16.8667 193.635 16V13C193.635 12.12 193.815 11.3667 194.175 10.74C194.548 10.1133 195.062 9.63333 195.715 9.3C196.382 8.96667 197.155 8.8 198.035 8.8C199.302 8.8 200.322 9.14 201.095 9.82C201.882 10.5 202.295 11.4267 202.335 12.6H200.535C200.495 11.8933 200.255 11.3533 199.815 10.98C199.375 10.5933 198.782 10.4 198.035 10.4C197.248 10.4 196.615 10.6267 196.135 11.08C195.668 11.52 195.435 12.1533 195.435 12.98V16C195.435 16.8267 195.668 17.4667 196.135 17.92C196.615 18.3733 197.248 18.6 198.035 18.6C198.782 18.6 199.375 18.4067 199.815 18.02C200.255 17.6333 200.495 17.0933 200.535 16.4H202.335C202.295 17.5733 201.882 18.5 201.095 19.18C200.322 19.86 199.302 20.2 198.035 20.2ZM205.707 20V5.4H207.507V9V11.1H207.887L207.507 11.52C207.507 10.6533 207.767 9.98667 208.287 9.52C208.807 9.04 209.527 8.8 210.447 8.8C211.554 8.8 212.434 9.14 213.087 9.82C213.741 10.5 214.067 11.4267 214.067 12.6V20H212.267V12.9C212.267 12.0733 212.054 11.44 211.627 11C211.214 10.5467 210.647 10.32 209.927 10.32C209.181 10.32 208.587 10.5533 208.147 11.02C207.721 11.4867 207.507 12.1467 207.507 13V20H205.707ZM220.899 20.2C219.766 20.2 218.866 19.8867 218.199 19.26C217.533 18.62 217.199 17.7867 217.199 16.76C217.199 16.08 217.353 15.4867 217.659 14.98C217.966 14.4733 218.393 14.08 218.939 13.8C219.486 13.5067 220.113 13.36 220.819 13.36H224.219V12.5C224.219 11.78 224.026 11.2467 223.639 10.9C223.253 10.54 222.666 10.36 221.879 10.36C221.186 10.36 220.626 10.4867 220.199 10.74C219.773 10.9933 219.546 11.3467 219.519 11.8H217.719C217.786 10.9333 218.186 10.22 218.919 9.66C219.666 9.08667 220.653 8.8 221.879 8.8C223.213 8.8 224.233 9.12 224.939 9.76C225.659 10.4 226.019 11.2933 226.019 12.44V20H224.239V18H223.939L224.219 17.6C224.219 18.1333 224.086 18.5933 223.819 18.98C223.553 19.3667 223.173 19.6667 222.679 19.88C222.186 20.0933 221.593 20.2 220.899 20.2ZM221.339 18.68C222.219 18.68 222.919 18.4667 223.439 18.04C223.959 17.6133 224.219 17.0333 224.219 16.3V14.76H221.019C220.433 14.76 219.953 14.94 219.579 15.3C219.219 15.6467 219.039 16.1133 219.039 16.7C219.039 17.3133 219.239 17.8 219.639 18.16C220.053 18.5067 220.619 18.68 221.339 18.68ZM229.792 20V5.4H231.592V13.54H233.692L236.772 9H238.832L235.292 14.24L239.032 20H236.932L233.732 15.1H231.592V20H229.792Z" fill="white"/>
</svg>
