<svg width="110" height="110" viewBox="0 0 110 110" fill="none" xmlns="http://www.w3.org/2000/svg">
<path d="M71.1287 42.0303C63.965 42.0303 58.1591 47.8362 58.1591 55C58.1591 62.1637 63.965 67.9697 71.1287 67.9697H71.5481C78.7119 67.9697 84.5178 62.1637 84.5178 55C84.5178 47.8362 78.7119 42.0303 71.5481 42.0303H71.1287ZM71.5481 74.2878H71.1287C60.4759 74.2878 51.8409 65.6528 51.8409 55C51.8409 44.3472 60.4759 35.7122 71.1287 35.7122H71.5481C82.2009 35.7122 90.8359 44.3472 90.8359 55C90.8359 65.6528 82.2009 74.2878 71.5481 74.2878ZM38.4519 74.2878C31.2881 74.2878 25.4787 80.0938 25.4787 87.2575C25.4787 94.4213 31.2847 100.227 38.4484 100.227C38.4862 100.227 38.5275 100.227 38.5653 100.227H38.5584C38.5687 100.227 38.5825 100.227 38.5962 100.227C45.8872 100.227 51.8066 94.3353 51.8444 87.0512V74.2878H38.4519ZM38.555 106.549C38.5103 106.549 38.4553 106.549 38.4003 106.549C27.7475 106.549 19.1125 97.9137 19.1125 87.2609C19.1125 76.6081 27.7475 67.9731 38.4003 67.9731C38.4175 67.9731 38.4347 67.9731 38.4519 67.9731H58.1591V87.0512C58.1178 97.8278 49.3694 106.549 38.5894 106.549C38.5791 106.549 38.5687 106.549 38.5584 106.549H38.555ZM38.4519 42.0303C31.2881 42.0303 25.4822 47.8362 25.4822 55C25.4822 62.1637 31.2881 67.9731 38.4519 67.9731L51.8409 67.9697V42.0337L38.4519 42.0303ZM58.1556 74.2878H38.4519C27.7991 74.2878 19.164 65.6528 19.164 55C19.164 44.3472 27.7991 35.7122 38.4519 35.7122H58.1591V74.2878H58.1556ZM38.4519 9.77281C31.2881 9.77281 25.4822 15.5787 25.4822 22.7425C25.4822 29.9062 31.2881 35.7122 38.4519 35.7122H51.8409V9.76937L38.4519 9.77281ZM58.1556 42.0303H38.4519C27.7991 42.0303 19.1606 33.3953 19.1606 22.7391C19.1606 12.0828 27.7956 3.44781 38.4519 3.44781H58.1591V42.0269L58.1556 42.0303ZM58.1556 35.7122H71.5481C78.6981 35.695 84.4834 29.8959 84.4834 22.7425C84.4834 15.5891 78.6947 9.79 71.5447 9.77281H58.1556V35.7122ZM71.5481 42.0303L51.8409 42.0337V3.45125H71.5481C82.2009 3.45125 90.8394 12.0862 90.8394 22.7425C90.8394 33.3987 82.2044 42.0303 71.5481 42.0303Z" fill="#B5B6BA"/>
</svg>
