<svg width="110" height="110" viewBox="0 0 110 110" fill="none" xmlns="http://www.w3.org/2000/svg">
<path d="M10.8866 12.0897H99.1135V97.9103H10.8866V12.0897Z" fill="#3D3E42"/>
<path d="M10.8866 12.0897H99.1134V97.9103H10.8866V12.0897ZM6.875 101.922H103.125V8.07812H6.875V101.922ZM71.7647 46.5781C68.5953 46.5781 67.5125 48.1834 67.5125 49.5069C67.5125 50.9506 68.2344 51.9544 72.4866 54.1578C78.7841 57.2069 80.7366 60.1322 80.7366 64.4256C80.7366 70.8434 75.845 74.2912 69.2278 74.2912C66.3879 74.3965 63.5653 73.8065 61.0053 72.5725C60.7234 72.4522 60.6856 72.2528 60.6856 71.9297V66.0275C60.6856 65.6253 60.885 65.505 61.1669 65.7078C63.571 67.2538 66.3695 68.0748 69.2278 68.0728C72.3972 68.0728 73.7206 66.7494 73.7206 64.9447C73.7206 63.5009 72.7994 62.2187 68.7466 60.1322C63.0506 57.4062 60.6856 54.6322 60.6856 50.0259C60.6856 44.8525 64.735 40.5625 71.7544 40.5625C74.1977 40.4576 76.6376 40.8397 78.9319 41.6866C79.064 41.7723 79.1709 41.8917 79.2416 42.0325C79.3123 42.1733 79.3442 42.3303 79.3341 42.4875V47.9875C79.3341 48.3072 79.1347 48.51 78.7325 48.3897C76.6121 47.169 74.2007 46.5454 71.7544 46.585L71.7647 46.5781ZM37.2728 51.3494C38.1941 51.4284 38.9159 51.4284 40.5213 51.4284C45.2134 51.4284 49.6237 49.7853 49.6237 43.4087C49.6237 38.3144 46.4544 35.75 41.1228 35.75C39.5175 35.75 37.9947 35.8291 37.2728 35.8703V51.3494ZM30.1331 30.0369C30.1331 29.755 30.6934 29.5556 31.0166 29.5556C33.5844 29.4353 37.3931 29.3563 41.3634 29.3563C52.4734 29.3563 56.8047 35.4509 56.8047 43.2334C56.8047 53.4187 49.4244 57.7912 40.3631 57.7912C38.8403 57.7912 38.3178 57.7122 37.235 57.7122V73.1122C37.235 73.4319 37.1147 73.5934 36.7538 73.5934H30.6178C30.2981 73.5934 30.1366 73.4731 30.1366 73.1122V30.0541L30.1331 30.0369Z" fill="#B5B6BA"/>
</svg>
