<svg width="110" height="110" viewBox="0 0 110 110" fill="none" xmlns="http://www.w3.org/2000/svg">
<path d="M74.8921 74.0987C78.6978 73.7113 81.5849 70.4859 81.4536 66.615C81.3227 62.7447 78.0416 59.6482 74.1046 59.6482H73.8423C69.7737 59.7771 66.6246 63.1317 66.7559 67.1313C66.8872 69.0666 67.6744 70.7438 68.8555 71.9049C64.3937 80.5496 57.5695 86.8715 47.3337 92.1614C40.3782 95.7739 33.1609 97.0643 25.9433 96.1613C20.0378 95.3872 15.4447 92.807 12.5572 88.5486C8.35807 82.2267 7.96451 75.3885 11.5078 68.5506C14.0013 63.6477 17.9378 60.0349 20.4314 58.2285C19.9065 56.5513 19.1189 53.713 18.7254 51.6488C-0.303206 65.196 1.66543 83.5172 7.43964 92.1614C11.7701 98.6126 20.5627 102.612 30.2738 102.612C32.8982 102.612 35.5228 102.354 38.1477 101.709C54.9453 98.4837 67.6748 88.6779 74.8921 74.0987ZM97.989 58.0999C88.0155 46.617 73.3174 40.2951 56.5197 40.2951H54.4204C53.2393 37.9727 50.7458 36.4241 47.9899 36.4241H47.7273C43.6593 36.5533 40.5102 39.9077 40.6412 43.9075C40.7725 47.7782 44.0529 50.8747 47.9899 50.8747H48.2522C51.1393 50.7457 53.6329 48.9393 54.6827 46.4877H57.0446C67.0185 46.4877 76.4668 49.3261 84.9973 54.8742C91.5585 59.1319 96.283 64.68 98.9075 71.389C101.138 76.8078 101.007 82.0978 98.6449 86.6137C94.9706 93.4515 88.803 97.1933 80.6664 97.1933C75.417 97.1933 70.4306 95.645 67.8057 94.4838C66.3623 95.7739 63.7374 97.8381 61.9001 99.1289C67.5434 101.709 73.3174 103.128 78.8291 103.128C91.4272 103.128 100.745 96.2899 104.288 89.452C108.094 81.9686 107.831 69.0666 97.989 58.0999ZM31.3235 76.2915C31.4549 80.1622 34.7356 83.2583 38.6726 83.2583H38.9352C43.0031 83.1297 46.1526 79.7751 46.0212 75.7756C45.8903 71.9046 42.6092 68.8084 38.6726 68.8084H38.4103C38.1477 68.8084 37.7537 68.8084 37.4918 68.937C32.1111 60.1638 29.8802 50.6165 30.6677 40.2947C31.1922 32.5533 33.8171 25.8441 38.4103 20.296C42.2156 15.5222 49.5646 13.1999 54.5518 13.0712C68.4619 12.8129 74.3669 29.8437 74.7608 36.6819C76.4668 37.069 79.354 37.9723 81.3227 38.6176C79.7476 17.7163 66.6246 6.87837 54.0268 6.87837C42.2156 6.87837 31.3235 15.2648 26.9927 27.6508C20.9563 44.1653 24.8931 60.0349 32.242 72.5502C31.5862 73.4532 31.1922 74.8722 31.3235 76.2915Z" fill="#B5B6BA"/>
</svg>
