<svg width="110" height="110" viewBox="0 0 110 110" fill="none" xmlns="http://www.w3.org/2000/svg">
<path d="M89.7532 60.4038C86.7306 60.4077 83.7484 61.0989 81.0322 62.425C80.1818 61.0137 79.5251 59.4945 79.0797 57.9081C78.8238 56.6646 78.7647 55.3887 78.9044 54.1269C79.1982 52.7384 79.5794 51.3698 80.0457 50.0294C80.0285 49.8541 79.836 49.0256 77.9007 48.9981C75.9654 48.9706 74.2982 49.3659 74.1194 49.8781C73.7833 50.8136 73.5134 51.7716 73.3116 52.745C71.7099 56.6965 69.7383 60.4877 67.4232 64.0681C66.1261 61.9417 65.5926 59.4367 65.9107 56.9663C66.2045 55.5778 66.5857 54.2092 67.0519 52.8688C67.0347 52.6934 66.8422 51.865 64.9069 51.8375C62.9716 51.81 61.3044 52.2053 61.1257 52.7175C60.9469 53.2297 60.72 54.4363 60.3179 55.5844C59.9157 56.7325 55.22 67.2238 53.9894 69.9291C53.3569 71.3041 52.8104 72.4247 52.4254 73.1809C52.4071 73.2301 52.3841 73.2773 52.3566 73.3219C52.0129 73.9716 51.8307 74.3256 51.8307 74.3256V74.3428C51.566 74.8172 51.2841 75.2572 51.1432 75.2572C50.8973 74.2751 50.9092 73.2462 51.1775 72.27C51.865 68.6297 53.5494 62.9716 53.5322 62.7756C53.5322 62.6691 53.8485 61.6859 52.4425 61.1772C52.1165 61.022 51.7503 60.9718 51.3945 61.0333C51.0387 61.0949 50.7107 61.2652 50.4557 61.5209C50.3319 61.5209 50.246 61.82 50.246 61.82C50.246 61.82 51.7757 55.4572 47.3275 55.4572C45.5954 55.8056 43.9503 56.4969 42.4893 57.4905C41.0282 58.484 39.7805 59.7597 38.8197 61.2425C37.6235 61.8922 35.0763 63.2809 32.3504 64.7763C31.3191 65.3572 30.2397 65.9381 29.2394 66.495C29.1707 66.4263 29.0985 66.3369 29.0297 66.2681C23.6157 60.5 13.6641 56.43 14.0938 48.7128C14.2519 45.9009 15.2179 38.5172 33.2029 29.5488C48.0047 22.2544 59.785 24.2756 61.8235 28.7581C64.7419 35.1588 55.5122 47.0422 40.2188 48.7644C38.5269 49.1076 36.7795 49.0662 35.1057 48.6432C33.432 48.2201 31.8747 47.4263 30.5491 46.3203C29.7413 45.4403 29.6175 45.3888 29.3185 45.5641C28.8269 45.8288 29.1432 46.6194 29.3185 47.0766C29.9019 48.1324 30.691 49.0606 31.6392 49.8063C32.5874 50.552 33.6755 51.1 34.8391 51.4181C40.8555 52.7183 47.1283 52.0966 52.7725 49.6409C62.0538 46.0556 69.2725 36.0869 67.155 27.7372C65.0272 19.2638 50.9644 16.4691 37.6544 21.2059C29.3176 24.0112 21.6145 28.4299 14.9841 34.21C7.65192 41.0678 6.49348 47.025 6.96786 49.5241C8.68661 58.3859 20.8932 64.1506 25.7779 68.4303C25.5304 68.5713 25.3035 68.695 25.111 68.7981C22.6669 70.0116 13.3513 74.8825 11.0172 80.0319C8.38067 85.8756 11.44 90.0522 13.4613 90.6159C16.5069 91.345 19.7042 91.1048 22.6068 89.929C25.5094 88.7532 27.9724 86.7004 29.6519 84.0572C31.0821 81.8648 31.9613 79.3592 32.2144 76.7538C32.4676 74.1485 32.0873 71.5205 31.106 69.0938C31.0894 69.0545 31.0661 69.0185 31.0372 68.9872L32.9519 67.8631C34.1997 67.1241 35.4304 66.44 36.4857 65.8763C35.7701 67.9403 35.35 70.0952 35.2379 72.2769C34.9949 75.6208 36.0182 78.9338 38.1047 81.5581C38.4222 81.8314 38.7908 82.039 39.1891 82.1688C39.5874 82.2986 40.0075 82.3481 40.425 82.3144C42.4875 82.3144 43.4329 80.5956 44.4675 78.5538C45.7325 76.0581 46.8738 73.1569 46.8738 73.1569C46.8738 73.1569 45.4507 80.9978 49.3179 80.9978C50.7238 80.9978 52.1469 79.1691 52.7829 78.2478V78.265C52.7829 78.265 52.8172 78.2134 52.8894 78.0897L53.1163 77.7219V77.6875C53.68 76.7044 54.945 74.47 56.8254 70.7609C59.2522 65.9794 61.5897 60.0016 61.5897 60.0016C61.8152 61.3153 62.1264 62.6129 62.5213 63.8859C63.0875 65.4292 63.757 66.9325 64.5254 68.3856C63.9616 69.1763 63.611 69.6163 63.611 69.6163L63.6282 69.6334C63.171 70.2316 62.6794 70.8813 62.1329 71.5138C60.5067 73.3016 58.9979 75.1927 57.616 77.1753C57.4106 77.5083 57.3401 77.9071 57.4186 78.2904C57.4972 78.6736 57.719 79.0125 58.0388 79.2378C58.7624 79.6144 59.5873 79.7504 60.3935 79.6263C61.6085 79.5577 62.8031 79.2846 63.9272 78.8184C65.0135 78.4362 66.0383 77.8977 66.9694 77.22C67.9293 76.555 68.7019 75.6543 69.213 74.6044C69.7241 73.5544 69.9565 72.3907 69.8879 71.225C69.7798 69.7566 69.4047 68.3203 68.781 66.9866C68.9563 66.7391 69.1247 66.495 69.2897 66.2475C71.2441 63.3304 73.0055 60.2886 74.5629 57.1416C74.7883 58.4553 75.0995 59.7529 75.4944 61.0259C75.9614 62.3595 76.5362 63.6529 77.2132 64.8931C74.9649 66.6229 73.1939 68.8966 72.0672 71.5C70.9604 74.7003 71.8197 76.1406 73.4422 76.4741C74.3301 76.5353 75.2178 76.3534 76.01 75.9481C77.1749 75.5653 78.2723 75.0015 79.2619 74.2775C80.3054 73.6617 81.1794 72.7961 81.8052 71.7586C82.4311 70.7211 82.7891 69.5443 82.8472 68.3341C82.7692 67.126 82.4964 65.9385 82.0394 64.8175C85.0063 63.6584 88.2232 63.2889 91.3757 63.745C99.7425 64.7281 101.396 69.9497 101.08 72.1497C100.931 72.9296 100.618 73.6687 100.16 74.3174C99.7024 74.966 99.1111 75.5092 98.426 75.9103C97.845 76.2781 97.6525 76.4019 97.7041 76.6666C97.7729 77.055 98.0479 77.0344 98.5463 76.9656C99.8073 76.5737 100.92 75.8087 101.737 74.7716C102.555 73.7345 103.039 72.474 103.125 71.1563C103.39 66 98.4672 60.3453 89.7635 60.3969L89.7532 60.4038ZM25.1969 82.1563C22.4194 85.1813 18.5522 86.3225 16.8816 85.3566C15.0872 84.3253 15.7919 79.8566 19.2019 76.6528C21.2247 74.8319 23.411 73.2014 25.7332 71.7819C26.1388 71.5344 26.7369 71.1838 27.4519 70.7506L27.6444 70.6441L28.0672 70.3794C28.6764 72.4206 28.7317 74.587 28.2273 76.6566C27.7229 78.7262 26.677 80.6243 25.1969 82.1563ZM45.4129 68.4063C44.4469 70.7609 42.4257 76.7938 41.195 76.4569C40.1397 76.175 39.4763 71.6031 40.9854 67.0863C41.7473 64.9119 42.8571 62.8756 44.2716 61.0569C45.7841 59.3691 47.4547 58.8053 47.8569 59.4928C47.49 62.569 46.6662 65.5732 45.4129 68.4063ZM62.095 76.3881C61.6894 76.5978 61.3044 76.7319 61.1291 76.6356C61.0054 76.5669 61.3044 76.2919 61.3044 76.2919C61.3044 76.2919 63.3979 74.0403 64.2229 73.0228C64.6972 72.4247 65.2541 71.7234 65.8591 70.9294V71.1563C65.8591 73.8444 63.2569 75.6559 62.0985 76.395L62.095 76.3881ZM74.965 73.4525C74.666 73.2428 74.7175 72.5381 75.7213 70.3416C76.4192 68.9309 77.3942 67.6752 78.5882 66.6497C78.7712 67.17 78.8664 67.7172 78.87 68.2688C78.8836 69.4428 78.5082 70.5883 77.8024 71.5266C77.0967 72.465 76.1002 73.1433 74.9685 73.4559L74.965 73.4525Z" fill="#B5B6BA"/>
</svg>
