<svg width="32" height="32" viewBox="0 0 32 32" fill="none" xmlns="http://www.w3.org/2000/svg">
<path d="M28.778 1.004H3.218C3.21 1.004 3.201 1.004 3.191 1.004C1.992 1.004 1.019 1.968 1.005 3.163V28.835C1.019 30.031 1.992 30.996 3.191 30.996C3.201 30.996 3.21001 30.996 3.22001 30.996H28.775C28.783 30.996 28.793 30.996 28.803 30.996C30.003 30.996 30.978 30.033 30.997 28.837V28.835V3.165C30.978 1.968 30.003 1.004 28.802 1.004C28.792 1.004 28.783 1.004 28.773 1.004H28.778ZM9.9 26.562H5.446V12.251H9.9V26.562ZM7.674 10.293C6.249 10.293 5.095 9.138 5.095 7.714C5.095 6.29 6.25 5.135 7.674 5.135C9.098 5.135 10.253 6.289 10.253 7.713C10.253 7.714 10.253 7.715 10.253 7.717C10.253 9.14 9.099 10.294 7.676 10.294C7.675 10.294 7.674 10.294 7.673 10.294L7.674 10.293ZM26.556 26.562H22.115V19.603C22.115 17.943 22.081 15.808 19.801 15.808C17.485 15.808 17.132 17.614 17.132 19.481V26.563H12.691V12.252H16.957V14.203H17.015C17.843 12.808 19.341 11.888 21.054 11.888C21.115 11.888 21.175 11.889 21.235 11.891H21.226C25.726 11.891 26.558 14.853 26.558 18.708V26.563L26.556 26.562Z" fill="black"/>
</svg>
