<svg width="110" height="110" viewBox="0 0 110 110" fill="none" xmlns="http://www.w3.org/2000/svg">
<path d="M20.2881 93.5034L12.5675 6.875H97.4325L89.7016 93.4897L54.9484 103.125L20.2881 93.5034Z" fill="#3D3E42"/>
<path d="M55 95.7619L83.0844 87.9759L89.6912 13.9597H55V95.7619Z" fill="#535458"/>
<path d="M55 45.3441H69.0594L70.0287 34.4644H55V23.8391H55.0378H81.6406L81.3863 26.6887L78.7772 55.9694H55V45.3441Z" fill="#B5B6BA"/>
<path d="M55.0653 72.9369L55.0171 72.9506L43.1853 69.7537L42.429 61.2803H36.6781H31.7625L33.2509 77.9625L55.0137 84.0056L55.0653 83.9919V72.9369Z" fill="#B5B6BA"/>
<path d="M68.1553 55.519L66.8765 69.7469L55.0275 72.9437V83.9987L76.8075 77.9625L76.969 76.1681L78.815 55.519H68.1553Z" fill="#B5B6BA"/>
<path d="M55.0378 23.8391V30.439V34.4369V34.4644H29.4078H29.3735L29.1603 32.0753L28.6756 26.6887L28.4213 23.8391H55.0378Z" fill="#B5B6BA"/>
<path d="M55 45.3441V51.9441V55.9419V55.9694H43.3503H43.3159L43.1028 53.5803L42.6216 48.1937L42.3672 45.3441H55Z" fill="#B5B6BA"/>
</svg>
