<svg width="10" height="10" viewBox="0 0 10 10" fill="none" xmlns="http://www.w3.org/2000/svg">
<rect x="0.093811" y="0.262665" width="9.81238" height="9.73734" rx="4.86867" fill="black"/>
<path fill-rule="evenodd" clip-rule="evenodd" d="M4.99953 0C2.23886 0 0 2.23924 0 5.00167C0 7.21111 1.43252 9.08588 3.41937 9.74758C3.66954 9.79331 3.7607 9.63883 3.7607 9.50623C3.7607 9.3874 3.7564 9.07302 3.75394 8.65575C2.36318 8.95787 2.06974 7.98517 2.06974 7.98517C1.84229 7.40733 1.51447 7.25345 1.51447 7.25345C1.0605 6.94336 1.54885 6.94952 1.54885 6.94952C2.05071 6.9848 2.31468 7.46502 2.31468 7.46502C2.76067 8.22923 3.48506 8.00849 3.76991 7.88048C3.81533 7.55745 3.94456 7.33701 4.08729 7.21201C2.97707 7.08551 1.80975 6.6566 1.80975 4.74007C1.80975 4.19385 2.00466 3.74772 2.3245 3.39801C2.27294 3.2715 2.10135 2.76304 2.37362 2.07435C2.37362 2.07435 2.7932 1.93987 3.74842 2.58679C4.14714 2.47596 4.57502 2.42069 5.00014 2.41854C5.42496 2.42069 5.85253 2.47596 6.25187 2.58679C7.20647 1.93987 7.62542 2.07435 7.62542 2.07435C7.89835 2.76304 7.72677 3.2715 7.67549 3.39801C7.99594 3.74772 8.18933 4.19385 8.18933 4.74007C8.18933 6.66151 7.02016 7.0843 5.90656 7.20802C6.08581 7.36251 6.24573 7.66771 6.24573 8.13439C6.24573 8.80279 6.23959 9.34227 6.23959 9.50623C6.23959 9.64011 6.32983 9.79579 6.58337 9.74691C8.56872 9.08407 10 7.21081 10 5.00167C10 2.23924 7.76113 0 4.99953 0Z" fill="white"/>
</svg>
