<svg width="110" height="110" viewBox="0 0 110 110" fill="none" xmlns="http://www.w3.org/2000/svg">
<path fill-rule="evenodd" clip-rule="evenodd" d="M61.4817 17.547C57.9022 13.9672 52.0978 13.9672 48.5182 17.547L45.4401 20.625L52.6258 27.8105C53.383 27.608 54.1787 27.5 55 27.5C60.0627 27.5 64.1667 31.6041 64.1667 36.6667C64.1667 37.4878 64.0585 38.2838 63.8564 39.041L73.2508 48.4353C74.008 48.2332 74.8037 48.125 75.625 48.125C80.6877 48.125 84.7917 52.2289 84.7917 57.2917C84.7917 62.3544 80.6877 66.4583 75.625 66.4583C70.5622 66.4583 66.4583 62.3544 66.4583 57.2917C66.4583 56.4703 66.5665 55.6747 66.7686 54.9175L59.5833 47.7317V69.9765C62.3232 71.5614 64.1667 74.5236 64.1667 77.9167C64.1667 82.9794 60.0627 87.0833 55 87.0833C49.9372 87.0833 45.8333 82.9794 45.8333 77.9167C45.8333 74.5236 47.6767 71.5614 50.4167 69.9765V44.607C47.6767 43.0221 45.8333 40.0596 45.8333 36.6667C45.8333 35.8455 45.9415 35.0496 46.1436 34.2923L38.9583 27.1068L17.547 48.5183C13.9672 52.0978 13.9672 57.9022 17.547 61.4817L48.5182 92.4532C52.0978 96.0327 57.9022 96.0327 61.4817 92.4532L92.4532 61.4817C96.0327 57.9022 96.0327 52.0978 92.4532 48.5183L61.4817 17.547ZM42.0364 11.0651C49.1961 3.90553 60.8039 3.90555 67.9635 11.0652L98.9349 42.0364C106.095 49.1961 106.095 60.8039 98.9349 67.9635L67.9635 98.9349C60.8039 106.095 49.1961 106.095 42.0364 98.9349L11.0651 67.9635C3.90552 60.8039 3.90554 49.1961 11.0652 42.0364L42.0364 11.0651Z" fill="#B5B6BA"/>
</svg>
