<svg width="38" height="38" viewBox="0 0 38 38" fill="none" xmlns="http://www.w3.org/2000/svg">
<path fill-rule="evenodd" clip-rule="evenodd" d="M18.9984 2.15335C9.69681 2.15335 2.15332 9.69583 2.15332 19.0006C2.15332 26.4427 6.97996 32.7575 13.6743 34.9863C14.5172 35.1404 14.8244 34.62 14.8244 34.1734C14.8244 33.7731 14.8099 32.7142 14.8016 31.3087C10.1157 32.3263 9.12696 29.05 9.12696 29.05C8.3606 27.1036 7.2561 26.5853 7.2561 26.5853C5.7265 25.5408 7.37192 25.5616 7.37192 25.5616C9.06284 25.6804 9.95225 27.2979 9.95225 27.2979C11.4549 29.8721 13.8957 29.1285 14.8554 28.6973C15.0085 27.6093 15.4439 26.8668 15.9248 26.4457C12.1841 26.0196 8.25099 24.5749 8.25099 18.1194C8.25099 16.2796 8.9077 14.7769 9.98536 13.5989C9.81162 13.1728 9.23349 11.4602 10.1508 9.14045C10.1508 9.14045 11.5646 8.68746 14.783 10.8665C16.1264 10.4932 17.5681 10.307 19.0005 10.2998C20.4318 10.307 21.8725 10.4932 23.218 10.8665C26.4344 8.68746 27.8459 9.14045 27.8459 9.14045C28.7655 11.4602 28.1874 13.1728 28.0147 13.5989C29.0944 14.7769 29.7459 16.2796 29.7459 18.1194C29.7459 24.5915 25.8066 26.0156 22.0545 26.4323C22.6585 26.9526 23.1973 27.9807 23.1973 29.5526C23.1973 31.804 23.1766 33.6211 23.1766 34.1734C23.1766 34.6243 23.4807 35.1487 24.3349 34.9841C31.0243 32.7514 35.8467 26.4417 35.8467 19.0006C35.8467 9.69583 28.3032 2.15335 18.9984 2.15335Z" fill="black"/>
</svg>
