<svg width="666" height="445" viewBox="0 0 666 445" fill="none" xmlns="http://www.w3.org/2000/svg">
<path d="M7.21 13.09L1.19 10.08V8.68L7.21 5.67V6.888L2.87 9.016C2.69267 9.1 2.52467 9.17467 2.366 9.24C2.21667 9.296 2.10467 9.33333 2.03 9.352C2.114 9.37067 2.23533 9.41267 2.394 9.478C2.55267 9.534 2.71133 9.604 2.87 9.688L7.21 11.83V13.09ZM9.68253 14V3.78H10.9425V6.3V7.77H11.2085L10.9425 8.064C10.9425 7.45733 11.1245 6.99067 11.4885 6.664C11.8525 6.328 12.3565 6.16 13.0005 6.16C13.7752 6.16 14.3912 6.398 14.8485 6.874C15.3059 7.35 15.5345 7.99867 15.5345 8.82V14H14.2745V9.03C14.2745 8.45133 14.1252 8.008 13.8265 7.7C13.5372 7.38267 13.1405 7.224 12.6365 7.224C12.1139 7.224 11.6985 7.38733 11.3905 7.714C11.0919 8.04067 10.9425 8.50267 10.9425 9.1V14H9.68253ZM21.7591 14C21.1244 14 20.6157 13.818 20.2331 13.454C19.8504 13.0807 19.6591 12.586 19.6591 11.97V7.448H17.4471V6.3H19.6591V4.13H20.9191V6.3H24.0691V7.448H20.9191V11.97C20.9191 12.2313 20.9937 12.446 21.1431 12.614C21.3017 12.7727 21.5071 12.852 21.7591 12.852H23.9991V14H21.7591ZM26.0236 14V6.3H27.1156V7.322H27.3956L27.1296 7.56C27.1296 7.14933 27.2463 6.81333 27.4796 6.552C27.7223 6.29067 28.0396 6.16 28.4316 6.16C28.8796 6.16 29.2343 6.328 29.4956 6.664C29.7569 7 29.8876 7.43867 29.8876 7.98L29.5096 7.252H30.0976L29.7756 7.56C29.7849 7.13067 29.9109 6.79 30.1536 6.538C30.3963 6.286 30.7183 6.16 31.1196 6.16C31.6143 6.16 32.0063 6.34667 32.2956 6.72C32.5943 7.084 32.7436 7.56 32.7436 8.148V14H31.5676V8.134C31.5676 7.826 31.4929 7.58333 31.3436 7.406C31.1943 7.21933 30.9889 7.126 30.7276 7.126C30.4756 7.126 30.2749 7.21467 30.1256 7.392C29.9763 7.56933 29.9016 7.812 29.9016 8.12V14H28.8656V8.134C28.8656 7.826 28.7909 7.58333 28.6416 7.406C28.4923 7.21933 28.2916 7.126 28.0396 7.126C27.7783 7.126 27.5729 7.21467 27.4236 7.392C27.2743 7.56933 27.1996 7.812 27.1996 8.12V14H26.0236ZM38.8981 14C38.4501 14 38.0581 13.9113 37.7221 13.734C37.3861 13.5567 37.1248 13.3047 36.9381 12.978C36.7515 12.6513 36.6581 12.2687 36.6581 11.83V4.928H33.9981V3.78H37.9181V11.83C37.9181 12.1473 38.0068 12.3993 38.1841 12.586C38.3615 12.7633 38.5995 12.852 38.8981 12.852H41.2781V14H38.8981ZM43.1627 13.09V11.872L47.5027 9.744C47.68 9.66 47.8433 9.59 47.9927 9.534C48.1513 9.46867 48.268 9.42667 48.3427 9.408C48.2587 9.38933 48.1373 9.34733 47.9787 9.282C47.82 9.21667 47.6613 9.14667 47.5027 9.072L43.1627 6.93V5.67L49.1827 8.68V10.08L43.1627 13.09Z" fill="#515256"/>
<path d="M16.21 29.09L10.19 26.08V24.68L16.21 21.67V22.888L11.87 25.016C11.6927 25.1 11.5247 25.1747 11.366 25.24C11.2167 25.296 11.1047 25.3333 11.03 25.352C11.114 25.3707 11.2353 25.4127 11.394 25.478C11.5527 25.534 11.7113 25.604 11.87 25.688L16.21 27.83V29.09ZM22.0425 30.14C21.4079 30.14 20.8992 29.972 20.5165 29.636C20.1339 29.2907 19.9425 28.824 19.9425 28.236L20.1945 28.53H19.9425V30H18.6825V19.78H19.9425V22.02L19.9145 23.77H20.1945L19.9145 24.064C19.9145 23.4853 20.1105 23.0233 20.5025 22.678C20.9039 22.3327 21.4172 22.16 22.0425 22.16C22.8172 22.16 23.4332 22.4167 23.8905 22.93C24.3479 23.4433 24.5765 24.1433 24.5765 25.03V27.284C24.5765 28.1613 24.3479 28.8567 23.8905 29.37C23.4332 29.8833 22.8172 30.14 22.0425 30.14ZM21.6225 29.048C22.1545 29.048 22.5699 28.908 22.8685 28.628C23.1672 28.348 23.3165 27.8953 23.3165 27.27V25.03C23.3165 24.3953 23.1672 23.9427 22.8685 23.672C22.5699 23.392 22.1545 23.252 21.6225 23.252C21.1092 23.252 20.6985 23.4153 20.3905 23.742C20.0919 24.0687 19.9425 24.5213 19.9425 25.1V27.2C19.9425 27.7787 20.0919 28.2313 20.3905 28.558C20.6985 28.8847 21.1092 29.048 21.6225 29.048ZM29.9891 30.112C29.3731 30.112 28.8364 29.9907 28.3791 29.748C27.9311 29.5053 27.5811 29.1553 27.3291 28.698C27.0864 28.2313 26.9651 27.676 26.9651 27.032V25.268C26.9651 24.6147 27.0864 24.0593 27.3291 23.602C27.5811 23.1447 27.9311 22.7947 28.3791 22.552C28.8364 22.3093 29.3731 22.188 29.9891 22.188C30.6144 22.188 31.1511 22.3093 31.5991 22.552C32.0471 22.7947 32.3924 23.1447 32.6351 23.602C32.8871 24.0593 33.0131 24.6147 33.0131 25.268V27.032C33.0131 27.676 32.8871 28.2313 32.6351 28.698C32.3924 29.1553 32.0424 29.5053 31.5851 29.748C31.1371 29.9907 30.6051 30.112 29.9891 30.112ZM29.9891 28.992C30.5397 28.992 30.9691 28.838 31.2771 28.53C31.5944 28.222 31.7531 27.7693 31.7531 27.172V25.128C31.7531 24.5307 31.5944 24.078 31.2771 23.77C30.9691 23.462 30.5397 23.308 29.9891 23.308C29.4477 23.308 29.0184 23.462 28.7011 23.77C28.3837 24.078 28.2251 24.5307 28.2251 25.128V27.172C28.2251 27.7693 28.3837 28.222 28.7011 28.53C29.0184 28.838 29.4477 28.992 29.9891 28.992ZM37.9356 30.14C37.1703 30.14 36.5543 29.8833 36.0876 29.37C35.6303 28.8567 35.4016 28.1613 35.4016 27.284V25.03C35.4016 24.1433 35.6303 23.4433 36.0876 22.93C36.5449 22.4167 37.1609 22.16 37.9356 22.16C38.5703 22.16 39.0836 22.3327 39.4756 22.678C39.8676 23.0233 40.0636 23.4853 40.0636 24.064L39.7836 23.77H40.0636L40.0356 22.02V19.78H41.2956V30H40.0356V28.53H39.7836L40.0356 28.236C40.0356 28.824 39.8443 29.2907 39.4616 29.636C39.0789 29.972 38.5703 30.14 37.9356 30.14ZM38.3556 29.048C38.8783 29.048 39.2889 28.8847 39.5876 28.558C39.8863 28.2313 40.0356 27.7787 40.0356 27.2V25.1C40.0356 24.5213 39.8863 24.0687 39.5876 23.742C39.2889 23.4153 38.8783 23.252 38.3556 23.252C37.8236 23.252 37.4083 23.392 37.1096 23.672C36.8109 23.9427 36.6616 24.3953 36.6616 25.03V27.27C36.6616 27.8953 36.8109 28.348 37.1096 28.628C37.4083 28.908 37.8236 29.048 38.3556 29.048ZM45.0701 32.52L46.2041 29.524L43.3341 22.3H44.6921L46.5121 27.06C46.5868 27.2467 46.6568 27.4427 46.7221 27.648C46.7875 27.8533 46.8341 28.0307 46.8621 28.18C46.8901 28.0307 46.9368 27.8533 47.0021 27.648C47.0675 27.4427 47.1328 27.2467 47.1981 27.06L48.8921 22.3H50.2221L46.3861 32.52H45.0701ZM52.1627 29.09V27.872L56.5027 25.744C56.68 25.66 56.8433 25.59 56.9927 25.534C57.1513 25.4687 57.268 25.4267 57.3427 25.408C57.2587 25.3893 57.1373 25.3473 56.9787 25.282C56.82 25.2167 56.6613 25.1467 56.5027 25.072L52.1627 22.93V21.67L58.1827 24.68V26.08L52.1627 29.09Z" fill="#515256"/>
<path d="M16.21 92.09L10.19 89.08V87.68L16.21 84.67V85.888L11.87 88.016C11.6927 88.1 11.5247 88.1747 11.366 88.24C11.2167 88.296 11.1047 88.3333 11.03 88.352C11.114 88.3707 11.2353 88.4127 11.394 88.478C11.5527 88.534 11.7113 88.604 11.87 88.688L16.21 90.83V92.09ZM18.6825 93V82.78H19.9425V85.3V86.77H20.2085L19.9425 87.064C19.9425 86.4573 20.1245 85.9907 20.4885 85.664C20.8525 85.328 21.3565 85.16 22.0005 85.16C22.7752 85.16 23.3912 85.398 23.8485 85.874C24.3059 86.35 24.5345 86.9987 24.5345 87.82V93H23.2745V88.03C23.2745 87.4513 23.1252 87.008 22.8265 86.7C22.5372 86.3827 22.1405 86.224 21.6365 86.224C21.1139 86.224 20.6985 86.3873 20.3905 86.714C20.0919 87.0407 19.9425 87.5027 19.9425 88.1V93H18.6825ZM27.0491 93V91.852H29.8211V83.872L27.0491 85.944V84.502L29.3591 82.78H31.0811V91.852H33.3491V93H27.0491ZM35.3736 92.09V90.872L39.7136 88.744C39.8909 88.66 40.0543 88.59 40.2036 88.534C40.3623 88.4687 40.4789 88.4267 40.5536 88.408C40.4696 88.3893 40.3483 88.3473 40.1896 88.282C40.0309 88.2167 39.8723 88.1467 39.7136 88.072L35.3736 85.93V84.67L41.3936 87.68V89.08L35.3736 92.09Z" fill="#515256"/>
<path d="M16.21 378.09L10.19 375.08V373.68L16.21 370.67V371.888L11.87 374.016C11.6927 374.1 11.5247 374.175 11.366 374.24C11.2167 374.296 11.1047 374.333 11.03 374.352C11.114 374.371 11.2353 374.413 11.394 374.478C11.5527 374.534 11.7113 374.604 11.87 374.688L16.21 376.83V378.09ZM18.6825 381.52V371.3H19.9425V372.77H20.1945L19.9425 373.064C19.9425 372.476 20.1339 372.014 20.5165 371.678C20.8992 371.333 21.4079 371.16 22.0425 371.16C22.5559 371.16 22.9992 371.277 23.3725 371.51C23.7552 371.734 24.0492 372.061 24.2545 372.49C24.4692 372.919 24.5765 373.428 24.5765 374.016V376.27C24.5765 376.858 24.4739 377.367 24.2685 377.796C24.0632 378.225 23.7692 378.557 23.3865 378.79C23.0132 379.023 22.5652 379.14 22.0425 379.14C21.4172 379.14 20.9085 378.967 20.5165 378.622C20.1339 378.277 19.9425 377.815 19.9425 377.236L20.1945 377.53H19.9145L19.9425 379.28V381.52H18.6825ZM21.6225 378.048C22.1545 378.048 22.5699 377.908 22.8685 377.628C23.1672 377.348 23.3165 376.895 23.3165 376.27V374.03C23.3165 373.395 23.1672 372.943 22.8685 372.672C22.5699 372.392 22.1545 372.252 21.6225 372.252C21.1092 372.252 20.6985 372.415 20.3905 372.742C20.0919 373.069 19.9425 373.521 19.9425 374.1V376.2C19.9425 376.779 20.0919 377.231 20.3905 377.558C20.6985 377.885 21.1092 378.048 21.6225 378.048ZM26.9791 378.09V376.872L31.3191 374.744C31.4964 374.66 31.6597 374.59 31.8091 374.534C31.9677 374.469 32.0844 374.427 32.1591 374.408C32.0751 374.389 31.9537 374.347 31.7951 374.282C31.6364 374.217 31.4777 374.147 31.3191 374.072L26.9791 371.93V370.67L32.9991 373.68V375.08L26.9791 378.09Z" fill="#515256"/>
<path d="M17.9545 443.54L18.5565 441.958L10.8145 438.08V436.68L16.8345 433.67V434.93L12.4945 437.044C12.3359 437.128 12.1912 437.198 12.0605 437.254C11.9299 437.31 11.8319 437.347 11.7665 437.366C11.8319 437.385 11.9299 437.422 12.0605 437.478C12.1912 437.534 12.3359 437.604 12.4945 437.688L18.9485 440.908L22.9245 430.38H24.2545L19.2845 443.54H17.9545ZM27.0771 444.52V434.3H28.3371V435.77H28.5891L28.3371 436.064C28.3371 435.476 28.5284 435.014 28.9111 434.678C29.2937 434.333 29.8024 434.16 30.4371 434.16C30.9504 434.16 31.3937 434.277 31.7671 434.51C32.1497 434.734 32.4437 435.061 32.6491 435.49C32.8637 435.919 32.9711 436.428 32.9711 437.016V439.27C32.9711 439.858 32.8684 440.367 32.6631 440.796C32.4577 441.225 32.1637 441.557 31.7811 441.79C31.4077 442.023 30.9597 442.14 30.4371 442.14C29.8117 442.14 29.3031 441.967 28.9111 441.622C28.5284 441.277 28.3371 440.815 28.3371 440.236L28.5891 440.53H28.3091L28.3371 442.28V444.52H27.0771ZM30.0171 441.048C30.5491 441.048 30.9644 440.908 31.2631 440.628C31.5617 440.348 31.7111 439.895 31.7111 439.27V437.03C31.7111 436.395 31.5617 435.943 31.2631 435.672C30.9644 435.392 30.5491 435.252 30.0171 435.252C29.5037 435.252 29.0931 435.415 28.7851 435.742C28.4864 436.069 28.3371 436.521 28.3371 437.1V439.2C28.3371 439.779 28.4864 440.231 28.7851 440.558C29.0931 440.885 29.5037 441.048 30.0171 441.048ZM35.3736 441.09V439.872L39.7136 437.744C39.8909 437.66 40.0543 437.59 40.2036 437.534C40.3623 437.469 40.4789 437.427 40.5536 437.408C40.4696 437.389 40.3483 437.347 40.1896 437.282C40.0309 437.217 39.8723 437.147 39.7136 437.072L35.3736 434.93V433.67L41.3936 436.68V438.08L35.3736 441.09Z" fill="#515256"/>
<path d="M623.955 347.54L624.557 345.958L616.815 342.08V340.68L622.835 337.67V338.93L618.495 341.044C618.336 341.128 618.191 341.198 618.061 341.254C617.93 341.31 617.832 341.347 617.767 341.366C617.832 341.385 617.93 341.422 618.061 341.478C618.191 341.534 618.336 341.604 618.495 341.688L624.949 344.908L628.925 334.38H630.255L625.285 347.54H623.955ZM633.077 346V335.78H634.337V338.3V339.77H634.603L634.337 340.064C634.337 339.457 634.519 338.991 634.883 338.664C635.247 338.328 635.751 338.16 636.395 338.16C637.17 338.16 637.786 338.398 638.243 338.874C638.7 339.35 638.929 339.999 638.929 340.82V346H637.669V341.03C637.669 340.451 637.52 340.008 637.221 339.7C636.932 339.383 636.535 339.224 636.031 339.224C635.508 339.224 635.093 339.387 634.785 339.714C634.486 340.041 634.337 340.503 634.337 341.1V346H633.077ZM641.444 346V344.852H644.216V336.872L641.444 338.944V337.502L643.754 335.78H645.476V344.852H647.744V346H641.444ZM649.768 345.09V343.872L654.108 341.744C654.285 341.66 654.449 341.59 654.598 341.534C654.757 341.469 654.873 341.427 654.948 341.408C654.864 341.389 654.743 341.347 654.584 341.282C654.425 341.217 654.267 341.147 654.108 341.072L649.768 338.93V337.67L655.788 340.68V342.08L649.768 345.09Z" fill="#515256"/>
</svg>
