<svg width="113" height="113" viewBox="0 0 113 113" fill="none" xmlns="http://www.w3.org/2000/svg">
<path d="M68.1673 70.0737C64.6269 70.4187 61.0605 69.7693 57.869 68.1986C57.146 67.6201 56.5493 66.8996 56.1157 66.0816C55.6821 65.2635 55.4207 64.3653 55.3478 63.4423C55.3463 63.3041 55.3175 63.1677 55.2629 63.0408C55.2084 62.9139 55.1292 62.7991 55.0299 62.703C54.9307 62.6069 54.8134 62.5315 54.6848 62.4811C54.5562 62.4306 54.4189 62.4062 54.2808 62.4092C52.7902 62.391 51.2999 62.395 49.8095 62.4071C49.5491 62.3806 49.2886 62.4577 49.0847 62.6219C48.8808 62.7861 48.7498 63.0241 48.7201 63.2842C48.6351 64.9036 48.9089 66.5217 49.5218 68.023C50.1347 69.5243 51.0717 70.8717 52.2657 71.9689C55.28 74.321 58.94 75.6978 62.7572 75.9154C66.7345 76.3768 70.7598 76.2059 74.6838 75.4091C77.6968 74.847 80.4592 73.3583 82.5854 71.1507C83.7608 69.7015 84.5486 67.9773 84.8748 66.14C85.2009 64.3028 85.0547 62.4128 84.4499 60.6475C83.942 59.4032 83.1557 58.2917 82.1515 57.3984C81.1473 56.5051 79.9518 55.8536 78.6568 55.4941C72.6265 53.3782 66.1123 53.5382 59.9647 51.9303C58.8974 51.5944 57.5933 51.2297 57.1177 50.0998C56.8428 49.3047 56.824 48.4433 57.064 47.637C57.304 46.8306 57.7907 46.1197 58.4557 45.6044C60.386 44.5012 62.5839 43.954 64.8061 44.0233C67.8219 43.7393 70.8621 44.1743 73.6774 45.2926C74.5231 45.7899 75.2504 46.4654 75.8088 47.2721C76.3672 48.0788 76.7432 48.9975 76.9109 49.9641C76.919 50.2494 77.0333 50.5214 77.2316 50.7266C77.4299 50.9319 77.6977 51.0557 77.9825 51.0737C79.4625 51.1038 80.943 51.0817 82.423 51.0837C82.6796 51.1144 82.9388 51.0515 83.1527 50.9064C83.3666 50.7613 83.521 50.5439 83.5875 50.2941C83.6006 48.2978 83.092 46.3327 82.112 44.5934C81.132 42.8542 79.7147 41.4012 78.0003 40.3783C73.2685 38.1945 68.0163 37.3908 62.848 38.0598C59.0612 38.215 55.4433 39.6683 52.6019 42.1763C51.2975 43.5822 50.4141 45.3263 50.0525 47.2098C49.6909 49.0933 49.8656 51.0405 50.5567 52.8295C51.0946 54.028 51.8861 55.0955 52.8764 55.9586C53.8668 56.8217 55.0325 57.4597 56.2932 57.8287C62.3034 59.9995 68.8906 59.3029 74.9591 61.2226C76.1416 61.6238 77.5187 62.2373 77.881 63.5535C78.0757 64.3423 78.061 65.1683 77.8383 65.9496C77.6156 66.731 77.1927 67.4406 76.6114 68.0083C74.0875 69.5762 71.1299 70.2996 68.1673 70.0737ZM95.5646 30.3101C83.8303 23.6744 72.0933 17.0448 60.3536 10.4212C59.1757 9.76254 57.8486 9.41672 56.4991 9.41672C55.1495 9.41672 53.8224 9.76254 52.6445 10.4212C40.9505 17.0248 29.2559 23.6281 17.5606 30.231C16.4229 30.8512 15.4718 31.7644 14.806 32.8761C14.1402 33.9877 13.7839 35.2572 13.7742 36.553V76.4525C13.7929 77.7718 14.1683 79.0615 14.8607 80.1847C15.553 81.3079 16.5364 82.2227 17.7066 82.8323C21.066 84.6609 24.33 86.6757 27.7503 88.3827C29.7244 89.438 31.9171 90.0195 34.1547 90.0809C36.3924 90.1424 38.6136 89.6823 40.6427 88.737C42.161 87.7859 43.3965 86.445 44.2203 84.8541C45.0441 83.2632 45.4262 81.4804 45.3267 79.6916C45.3528 66.5239 45.3307 53.3555 45.3367 40.1875C45.3596 40.0435 45.3519 39.8963 45.314 39.7556C45.276 39.6148 45.2088 39.4836 45.1167 39.3707C45.0245 39.2577 44.9096 39.1655 44.7793 39.1C44.6491 39.0346 44.5065 38.9974 44.3608 38.9909C42.8664 38.9667 41.3698 38.9767 39.8755 38.9868C39.7371 38.9744 39.5977 38.9914 39.4663 39.0366C39.335 39.0819 39.2147 39.1544 39.1133 39.2494C39.012 39.3444 38.9318 39.4597 38.8782 39.5879C38.8245 39.716 38.7985 39.854 38.802 39.9929C38.7819 53.0762 38.806 66.1632 38.7899 79.2485C38.7933 80.1517 38.5205 81.0343 38.008 81.7781C37.4955 82.5218 36.7678 83.091 35.9225 83.4094C34.9492 83.6971 33.9262 83.7762 32.9202 83.6415C31.9142 83.5069 30.9479 83.1615 30.0845 82.628C26.9723 80.8702 23.8601 79.1126 20.7479 77.3552C20.5417 77.2575 20.3704 77.0989 20.257 76.9008C20.1437 76.7028 20.0938 76.4747 20.114 76.2474C20.114 63.0835 20.114 49.9201 20.114 36.7574C20.0923 36.5013 20.1522 36.245 20.2849 36.025C20.4177 35.805 20.6166 35.6325 20.8532 35.5323C32.5089 28.9677 44.1623 22.3962 55.8135 15.8178C56.0159 15.6796 56.2553 15.6058 56.5004 15.6062C56.7454 15.6066 56.9846 15.681 57.1866 15.8198C68.8419 22.3865 80.4966 28.9555 92.1508 35.5267C92.3863 35.6297 92.5837 35.8037 92.7155 36.0244C92.8473 36.2451 92.9069 36.5014 92.8859 36.7576C92.8839 49.9192 92.8825 63.0819 92.8819 76.2456C92.9025 76.4739 92.8538 76.7031 92.7421 76.9032C92.6304 77.1034 92.461 77.2652 92.256 77.3675C80.7788 83.8573 69.2956 90.3377 57.8062 96.8087C57.2573 97.1144 56.6075 97.6064 55.9655 97.236C52.9564 95.5327 49.9841 93.7634 46.9851 92.044C46.8318 91.9267 46.647 91.8579 46.4543 91.8464C46.2617 91.8348 46.0699 91.881 45.9037 91.9791C44.5827 92.7531 43.1923 93.4019 41.7506 93.9171C41.1005 94.1803 40.3008 94.2553 39.8533 94.8582C40.4237 95.4788 41.1146 95.9764 41.8839 96.3207C45.3913 98.3516 48.9006 100.381 52.4117 102.408C53.573 103.137 54.9085 103.542 56.2792 103.58C57.65 103.618 59.0059 103.288 60.2059 102.624C71.9017 96.0297 83.5969 89.4318 95.2917 82.831C96.4609 82.2204 97.4436 81.3054 98.136 80.1828C98.8285 79.0601 99.2051 77.7713 99.2261 76.4524V36.553C99.2163 35.2828 98.8729 34.0375 98.2303 32.9419C97.5877 31.8462 96.6684 30.9386 95.5646 30.3101Z" fill="#B5B6BA"/>
</svg>
