<svg width="14" height="12" viewBox="0 0 14 12" fill="none" xmlns="http://www.w3.org/2000/svg">
<path d="M12.25 0H1.75C0.783562 0 0 0.8955 0 2V10C0 11.1045 0.783562 12 1.75 12H12.25C13.2164 12 14 11.1045 14 10V2C14 0.8955 13.2164 0 12.25 0ZM9.3695 5.33691L13.0737 1.70897C13.0994 1.80272 13.125 1.89647 13.125 2V10C13.125 10.0693 13.1019 10.1309 13.09 10.1963L9.3695 5.33691ZM12.25 1C12.3081 1 12.3594 1.02541 12.4141 1.03809L7 6.34181L1.58594 1.03809C1.64062 1.02541 1.69189 1 1.75 1H12.25ZM0.909617 10.1953C0.897641 10.1299 0.875 10.0693 0.875 10V2C0.875 1.89647 0.901059 1.80272 0.926707 1.70897L4.62965 5.33594L0.909617 10.1953ZM1.75 11C1.66157 11 1.58123 10.9707 1.50049 10.9424L5.29443 5.98728L6.71546 7.37887C6.79705 7.45997 6.89875 7.5 7 7.5C7.10125 7.5 7.20295 7.45997 7.28454 7.37891L8.70557 5.98731L12.4995 10.9424C12.4192 10.9707 12.3389 11 12.25 11H1.75Z" fill="#14F4D8"/>
</svg>
