<svg width="36" height="36" viewBox="0 0 36 36" fill="none" xmlns="http://www.w3.org/2000/svg">
<g clip-path="url(#clip0_57_8)">
<path d="M18 3C9.75 3 3 9.75 3 18C3 26.25 9.75 33 18 33C26.25 33 33 26.25 33 18C33 9.75 26.25 3 18 3ZM25.35 12.15L22.8 24.45C22.65 25.35 22.05 25.5 21.45 25.05L17.55 22.05C16.65 22.95 15.75 23.7 15.6 24C15.3 24.15 15.15 24.45 14.85 24.45C14.4 24.45 14.4 24.15 14.25 23.85L12.9 19.35L8.85 18C7.95 17.7 7.95 17.1 9 16.65L24.3 10.8C24.9 10.65 25.65 10.95 25.35 12.15ZM21.75 13.5L13.2 18.9L14.55 23.4L14.85 20.4L22.2 13.8C22.65 13.35 22.35 13.35 21.75 13.5Z" fill="black"/>
</g>
<defs>
<clipPath id="clip0_57_8">
<rect width="36" height="36" fill="white"/>
</clipPath>
</defs>
</svg>
