<svg width="58" height="78" viewBox="0 0 58 78" fill="none" xmlns="http://www.w3.org/2000/svg">
<path d="M7.21 13.09L1.19 10.08V8.68L7.21 5.67V6.888L2.87 9.016C2.69267 9.1 2.52467 9.17467 2.366 9.24C2.21667 9.296 2.10467 9.33333 2.03 9.352C2.114 9.37067 2.23533 9.41267 2.394 9.478C2.55267 9.534 2.71133 9.604 2.87 9.688L7.21 11.83V13.09ZM9.68253 14V3.78H10.9425V6.3V7.77H11.2085L10.9425 8.064C10.9425 7.45733 11.1245 6.99067 11.4885 6.664C11.8525 6.328 12.3565 6.16 13.0005 6.16C13.7752 6.16 14.3912 6.398 14.8485 6.874C15.3059 7.35 15.5345 7.99867 15.5345 8.82V14H14.2745V9.03C14.2745 8.45133 14.1252 8.008 13.8265 7.7C13.5372 7.38267 13.1405 7.224 12.6365 7.224C12.1139 7.224 11.6985 7.38733 11.3905 7.714C11.0919 8.04067 10.9425 8.50267 10.9425 9.1V14H9.68253ZM17.9931 14V12.838L21.3951 9.198C21.8897 8.67533 22.2397 8.20867 22.4451 7.798C22.6504 7.38733 22.7531 6.986 22.7531 6.594C22.7531 6.034 22.5897 5.59067 22.2631 5.264C21.9457 4.928 21.5117 4.76 20.9611 4.76C20.3917 4.76 19.9391 4.93267 19.6031 5.278C19.2764 5.614 19.1131 6.07133 19.1131 6.65H17.8531C17.8717 6.034 18.0117 5.502 18.2731 5.054C18.5344 4.59667 18.8937 4.24667 19.3511 4.004C19.8084 3.76133 20.3451 3.64 20.9611 3.64C21.5957 3.64 22.1417 3.76133 22.5991 4.004C23.0564 4.24667 23.4111 4.592 23.6631 5.04C23.9151 5.47867 24.0411 6.00133 24.0411 6.608C24.0411 7.09333 23.9057 7.60667 23.6351 8.148C23.3737 8.68933 22.9211 9.296 22.2771 9.968L19.5191 12.852H24.1671V14H17.9931ZM26.3736 13.09V11.872L30.7136 9.744C30.8909 9.66 31.0543 9.59 31.2036 9.534C31.3623 9.46867 31.4789 9.42667 31.5536 9.408C31.4696 9.38933 31.3483 9.34733 31.1896 9.282C31.0309 9.21667 30.8723 9.14667 30.7136 9.072L26.3736 6.93V5.67L32.3936 8.68V10.08L26.3736 13.09Z" fill="#515256"/>
<path d="M8.95453 77.54L9.55653 75.958L1.81453 72.08V70.68L7.83453 67.67V68.93L3.49453 71.044C3.33586 71.128 3.1912 71.198 3.06053 71.254C2.92986 71.31 2.83186 71.3473 2.76653 71.366C2.83186 71.3847 2.92986 71.422 3.06053 71.478C3.1912 71.534 3.33586 71.604 3.49453 71.688L9.94853 74.908L13.9245 64.38H15.2545L10.2845 77.54H8.95453ZM18.0771 76V65.78H19.3371V68.3V69.77H19.6031L19.3371 70.064C19.3371 69.4573 19.5191 68.9907 19.8831 68.664C20.2471 68.328 20.7511 68.16 21.3951 68.16C22.1697 68.16 22.7857 68.398 23.2431 68.874C23.7004 69.35 23.9291 69.9987 23.9291 70.82V76H22.6691V71.03C22.6691 70.4513 22.5197 70.008 22.2211 69.7C21.9317 69.3827 21.5351 69.224 21.0311 69.224C20.5084 69.224 20.0931 69.3873 19.7851 69.714C19.4864 70.0407 19.3371 70.5027 19.3371 71.1V76H18.0771ZM26.3876 76V74.838L29.7896 71.198C30.2843 70.6753 30.6343 70.2087 30.8396 69.798C31.0449 69.3873 31.1476 68.986 31.1476 68.594C31.1476 68.034 30.9843 67.5907 30.6576 67.264C30.3403 66.928 29.9063 66.76 29.3556 66.76C28.7863 66.76 28.3336 66.9327 27.9976 67.278C27.6709 67.614 27.5076 68.0713 27.5076 68.65H26.2476C26.2663 68.034 26.4063 67.502 26.6676 67.054C26.9289 66.5967 27.2883 66.2467 27.7456 66.004C28.2029 65.7613 28.7396 65.64 29.3556 65.64C29.9903 65.64 30.5363 65.7613 30.9936 66.004C31.4509 66.2467 31.8056 66.592 32.0576 67.04C32.3096 67.4787 32.4356 68.0013 32.4356 68.608C32.4356 69.0933 32.3003 69.6067 32.0296 70.148C31.7683 70.6893 31.3156 71.296 30.6716 71.968L27.9136 74.852H32.5616V76H26.3876ZM34.7681 75.09V73.872L39.1081 71.744C39.2855 71.66 39.4488 71.59 39.5981 71.534C39.7568 71.4687 39.8735 71.4267 39.9481 71.408C39.8641 71.3893 39.7428 71.3473 39.5841 71.282C39.4255 71.2167 39.2668 71.1467 39.1081 71.072L34.7681 68.93V67.67L40.7881 70.68V72.08L34.7681 75.09Z" fill="#515256"/>
</svg>
