<svg width="110" height="110" viewBox="0 0 110 110" fill="none" xmlns="http://www.w3.org/2000/svg">
<path d="M98.615 6.875H11.385C8.8942 6.875 6.875 8.8942 6.875 11.385V98.615C6.875 101.106 8.8942 103.125 11.385 103.125H98.615C101.106 103.125 103.125 101.106 103.125 98.615V11.385C103.125 8.8942 101.106 6.875 98.615 6.875Z" fill="#3D3E42"/>
<path fill-rule="evenodd" clip-rule="evenodd" d="M62.7172 81.6716V92.2178C64.6334 93.1636 66.6755 93.8292 68.7809 94.1944C71.214 94.6436 73.6837 94.8645 76.1578 94.8544C78.5692 94.8658 80.975 94.6227 83.3353 94.1291C85.4545 93.7008 87.4764 92.8851 89.2994 91.7228C90.9918 90.6304 92.3867 89.1351 93.3591 87.3709C95.1006 83.718 95.3303 79.5254 93.9984 75.7041C93.4364 74.2751 92.5989 72.9704 91.5337 71.8644C90.3904 70.6883 89.0916 69.674 87.6734 68.8497C86.0408 67.8935 84.3444 67.0504 82.5962 66.3266C81.2212 65.7559 79.9837 65.2014 78.8837 64.6628C77.9067 64.195 76.9717 63.6442 76.0891 63.0163C75.3977 62.5316 74.7973 61.9288 74.3153 61.2356C73.8989 60.6062 73.682 59.8658 73.6931 59.1113C73.6839 58.4168 73.8775 57.7346 74.25 57.1484C74.6546 56.5349 75.1943 56.0222 75.8278 55.6497C76.6022 55.1938 77.4448 54.8653 78.3234 54.6769C79.4021 54.4372 80.5047 54.3219 81.6097 54.3331C82.539 54.3363 83.467 54.4029 84.3872 54.5325C85.3809 54.6669 86.3641 54.8702 87.3297 55.1409C88.3118 55.4131 89.2723 55.7578 90.2034 56.1722C91.1069 56.5749 91.9711 57.0606 92.785 57.6228V47.7813C91.0907 47.1402 89.3336 46.6794 87.5428 46.4063C85.3803 46.0916 83.1968 45.9433 81.0116 45.9628C78.6229 45.95 76.2412 46.2211 73.9166 46.7706C71.8154 47.2508 69.8174 48.1042 68.0178 49.2903C66.3461 50.404 64.9657 51.9022 63.9925 53.6594C62.9611 55.6107 62.4508 57.7952 62.5109 60.0016C62.4348 62.9193 63.3958 65.7694 65.2231 68.0453C67.465 70.5687 70.292 72.5033 73.4559 73.6794C74.8997 74.2752 76.246 74.8584 77.495 75.4291C78.6219 75.9305 79.705 76.5249 80.7331 77.2063C81.5624 77.7457 82.2907 78.4263 82.885 79.2172C83.4076 79.9345 83.6848 80.8013 83.6756 81.6888C83.6804 82.3538 83.5096 83.0083 83.1806 83.5863C82.8151 84.2073 82.3013 84.7282 81.6853 85.1022C80.9145 85.5721 80.0712 85.9113 79.1897 86.1059C78.0414 86.3627 76.8669 86.4838 75.6903 86.4669C73.3813 86.4626 71.0908 86.0555 68.9219 85.2638C66.6559 84.4461 64.5546 83.2295 62.7172 81.6716ZM45.0003 55.4159H58.7503V46.7294H20.4119V55.4159H34.1V94.1016H45.0003V55.4159Z" fill="#B5B6BA"/>
</svg>
